<svg xmlns="http://www.w3.org/2000/svg" viewBox="0 0 371 276">
  <style>
    svg { color: #dfa92f; }
    @media (prefers-color-scheme: dark) { svg { color: #ffffff; } }
  </style>
  <g fill="none" stroke="currentColor" stroke-width="6" stroke-linecap="round">
    <ellipse cx="186" cy="137" rx="155" ry="83" />
    <path d="M31 137h310" />
    <ellipse cx="186" cy="137" rx="50" ry="83" />
    <path d="M186 54a100 83 0 0 0 0 166" />
    <path d="M186 54a100 83 0 0 1 0 166" />
  </g>
  <g fill="currentColor" stroke="currentColor" stroke-width="5" stroke-linejoin="round">
    <g transform="skewX(-11)">
      <path d="M102 48h16l19.5 105h-16z" />
      <path d="M121.5 153h16l19.5-105h-16z" />
      <path d="M141 48h16l19.5 105h-16z" />
      <path d="M160.5 153h16l19.5-105h-16z" />
      <rect x="231" y="48" width="18" height="105" />
      <rect x="231" y="48" width="58" height="18" />
      <rect x="231" y="91.5" width="50" height="18" />
      <rect x="231" y="135" width="58" height="18" />
    </g>
    <path d="M156 44h72l-36 208z" />
  </g>
</svg>